<svg width="168" height="55" viewBox="0 0 168 55" fill="none" xmlns="http://www.w3.org/2000/svg">
<rect width="168" height="55" rx="12" fill="#084A2D"/>
<path d="M12.375 19.1146C12.375 17.8576 12.8743 16.652 13.7632 15.7632C14.652 14.8743 15.8576 14.375 17.1146 14.375H21.0105C21.3006 14.375 21.5788 14.4902 21.7839 14.6954C21.989 14.9005 22.1043 15.1787 22.1043 15.4688C22.1043 15.7588 21.989 16.037 21.7839 16.2421C21.5788 16.4473 21.3006 16.5625 21.0105 16.5625H17.1146C16.4377 16.5625 15.7886 16.8314 15.31 17.31C14.8314 17.7886 14.5625 18.4377 14.5625 19.1146V23.0105C14.5625 23.3006 14.4473 23.5788 14.2421 23.7839C14.037 23.989 13.7588 24.1043 13.4688 24.1043C13.1787 24.1043 12.9005 23.989 12.6954 23.7839C12.4902 23.5788 12.375 23.3006 12.375 23.0105V19.1146ZM28.8957 15.4688C28.8957 15.1787 29.011 14.9005 29.2161 14.6954C29.4212 14.4902 29.6994 14.375 29.9895 14.375H33.8854C35.1424 14.375 36.348 14.8743 37.2368 15.7632C38.1257 16.652 38.625 17.8576 38.625 19.1146V23.0105C38.625 23.3006 38.5098 23.5788 38.3046 23.7839C38.0995 23.989 37.8213 24.1043 37.5313 24.1043C37.2412 24.1043 36.963 23.989 36.7579 23.7839C36.5527 23.5788 36.4375 23.3006 36.4375 23.0105V19.1146C36.4375 18.4377 36.1686 17.7886 35.69 17.31C35.2114 16.8314 34.5623 16.5625 33.8854 16.5625H29.9895C29.6994 16.5625 29.4212 16.4473 29.2161 16.2421C29.011 16.037 28.8957 15.7588 28.8957 15.4688ZM13.4688 30.8957C13.7588 30.8957 14.037 31.011 14.2421 31.2161C14.4473 31.4212 14.5625 31.6994 14.5625 31.9895V35.8854C14.5625 36.5623 14.8314 37.2114 15.31 37.69C15.7886 38.1686 16.4377 38.4375 17.1146 38.4375H21.0105C21.3006 38.4375 21.5788 38.5527 21.7839 38.7579C21.989 38.963 22.1043 39.2412 22.1043 39.5313C22.1043 39.8213 21.989 40.0995 21.7839 40.3046C21.5788 40.5098 21.3006 40.625 21.0105 40.625H17.1146C15.8576 40.625 14.652 40.1257 13.7632 39.2368C12.8743 38.348 12.375 37.1424 12.375 35.8854V31.9895C12.375 31.6994 12.4902 31.4212 12.6954 31.2161C12.9005 31.011 13.1787 30.8957 13.4688 30.8957ZM37.5313 30.8957C37.8213 30.8957 38.0995 31.011 38.3046 31.2161C38.5098 31.4212 38.625 31.6994 38.625 31.9895V35.8854C38.625 37.1424 38.1257 38.348 37.2368 39.2368C36.348 40.1257 35.1424 40.625 33.8854 40.625H29.9895C29.6994 40.625 29.4212 40.5098 29.2161 40.3046C29.011 40.0995 28.8957 39.8213 28.8957 39.5313C28.8957 39.2412 29.011 38.963 29.2161 38.7579C29.4212 38.5527 29.6994 38.4375 29.9895 38.4375H33.8854C34.5623 38.4375 35.2114 38.1686 35.69 37.69C36.1686 37.2114 36.4375 36.5623 36.4375 35.8854V31.9895C36.4375 31.6994 36.5527 31.4212 36.7579 31.2161C36.963 31.011 37.2412 30.8957 37.5313 30.8957ZM27.6875 27.8646C27.6875 27.2844 27.457 26.728 27.0468 26.3178C26.6366 25.9076 26.0802 25.6771 25.5 25.6771C24.9198 25.6771 24.3634 25.9076 23.9532 26.3178C23.543 26.728 23.3125 27.2844 23.3125 27.8646C23.3125 28.4447 23.543 29.0011 23.9532 29.4114C24.3634 29.8216 24.9198 30.0521 25.5 30.0521C26.0802 30.0521 26.6366 29.8216 27.0468 29.4114C27.457 29.0011 27.6875 28.4447 27.6875 27.8646ZM28.3182 21.3845C28.1734 21.138 27.9667 20.9337 27.7185 20.7917C27.4704 20.6498 27.1895 20.5751 26.9036 20.5751H24.1306C23.8502 20.5752 23.5745 20.6471 23.3297 20.7841C23.085 20.9211 22.8795 21.1185 22.7328 21.3575L22.0948 22.3958H20.5781C19.9496 22.3958 19.3469 22.6455 18.9024 23.0899C18.458 23.5344 18.2083 24.1371 18.2083 24.7656V31.6927C18.2083 32.3212 18.458 32.924 18.9024 33.3684C19.3469 33.8128 19.9496 34.0625 20.5781 34.0625H30.4219C31.0504 34.0625 31.6531 33.8128 32.0976 33.3684C32.542 32.924 32.7917 32.3212 32.7917 31.6927V24.7656C32.7917 24.1371 32.542 23.5344 32.0976 23.0899C31.6531 22.6455 31.0504 22.3958 30.4219 22.3958H28.9125L28.3182 21.3845ZM22.2188 27.8646C22.2188 26.9943 22.5645 26.1597 23.1798 25.5444C23.7952 24.929 24.6298 24.5833 25.5 24.5833C26.3702 24.5833 27.2048 24.929 27.8202 25.5444C28.4355 26.1597 28.7813 26.9943 28.7813 27.8646C28.7813 28.7348 28.4355 29.5694 27.8202 30.1848C27.2048 30.8001 26.3702 31.1458 25.5 31.1458C24.6298 31.1458 23.7952 30.8001 23.1798 30.1848C22.5645 29.5694 22.2188 28.7348 22.2188 27.8646Z" fill="#D9D9D9"/>
<path d="M50.0693 28.7031C50.0693 28.5371 50.0433 28.3906 49.9912 28.2637C49.9424 28.1335 49.8545 28.0163 49.7275 27.9121C49.6038 27.8079 49.4313 27.7087 49.21 27.6143C48.9919 27.5199 48.7152 27.4238 48.3799 27.3262C48.0283 27.222 47.7109 27.1064 47.4277 26.9795C47.1445 26.8493 46.902 26.7012 46.7002 26.5352C46.4984 26.3691 46.3438 26.1787 46.2363 25.9639C46.1289 25.749 46.0752 25.5033 46.0752 25.2266C46.0752 24.9499 46.1322 24.6943 46.2461 24.46C46.36 24.2256 46.5228 24.0221 46.7344 23.8496C46.9492 23.6738 47.2048 23.5371 47.501 23.4395C47.7972 23.3418 48.1276 23.293 48.4922 23.293C49.026 23.293 49.4785 23.3955 49.8496 23.6006C50.224 23.8024 50.5088 24.0677 50.7041 24.3965C50.8994 24.722 50.9971 25.0703 50.9971 25.4414H50.0596C50.0596 25.1745 50.0026 24.9385 49.8887 24.7334C49.7747 24.5251 49.6022 24.3623 49.3711 24.2451C49.14 24.1247 48.847 24.0645 48.4922 24.0645C48.1569 24.0645 47.8802 24.1149 47.6621 24.2158C47.444 24.3167 47.2812 24.4535 47.1738 24.626C47.0697 24.7985 47.0176 24.9954 47.0176 25.2168C47.0176 25.3665 47.0485 25.5033 47.1104 25.627C47.1755 25.7474 47.2747 25.8597 47.4082 25.9639C47.5449 26.068 47.7174 26.1641 47.9258 26.252C48.1374 26.3398 48.3896 26.4245 48.6826 26.5059C49.0863 26.6198 49.4346 26.7467 49.7275 26.8867C50.0205 27.0267 50.2614 27.1846 50.4502 27.3604C50.6423 27.5329 50.7839 27.7298 50.875 27.9512C50.9694 28.1693 51.0166 28.4167 51.0166 28.6934C51.0166 28.9831 50.958 29.2451 50.8408 29.4795C50.7236 29.7139 50.556 29.9141 50.3379 30.0801C50.1198 30.2461 49.8577 30.3747 49.5518 30.4658C49.249 30.5537 48.9105 30.5977 48.5361 30.5977C48.2074 30.5977 47.8835 30.5521 47.5645 30.4609C47.2487 30.3698 46.9606 30.2331 46.7002 30.0508C46.443 29.8685 46.2363 29.6439 46.0801 29.377C45.9271 29.1068 45.8506 28.7943 45.8506 28.4395H46.7881C46.7881 28.6836 46.8353 28.8936 46.9297 29.0693C47.0241 29.2419 47.1527 29.3851 47.3154 29.499C47.4814 29.613 47.6686 29.6976 47.877 29.7529C48.0885 29.805 48.3083 29.8311 48.5361 29.8311C48.8649 29.8311 49.1432 29.7855 49.3711 29.6943C49.599 29.6032 49.7715 29.473 49.8887 29.3037C50.0091 29.1344 50.0693 28.9342 50.0693 28.7031ZM54.1953 29.8555C54.4102 29.8555 54.6087 29.8115 54.791 29.7236C54.9733 29.6357 55.123 29.5153 55.2402 29.3623C55.3574 29.2061 55.4242 29.0286 55.4404 28.8301H56.2998C56.2835 29.1426 56.1777 29.4339 55.9824 29.7041C55.7904 29.971 55.5381 30.1875 55.2256 30.3535C54.9131 30.5163 54.5697 30.5977 54.1953 30.5977C53.7982 30.5977 53.4515 30.5277 53.1553 30.3877C52.8623 30.2477 52.6182 30.0557 52.4229 29.8115C52.2308 29.5674 52.0859 29.2874 51.9883 28.9717C51.8939 28.6527 51.8467 28.3158 51.8467 27.9609V27.7559C51.8467 27.401 51.8939 27.0658 51.9883 26.75C52.0859 26.431 52.2308 26.1494 52.4229 25.9053C52.6182 25.6611 52.8623 25.4691 53.1553 25.3291C53.4515 25.1891 53.7982 25.1191 54.1953 25.1191C54.6087 25.1191 54.9701 25.2038 55.2793 25.373C55.5885 25.5391 55.8311 25.7669 56.0068 26.0566C56.1859 26.3431 56.2835 26.6686 56.2998 27.0332H55.4404C55.4242 26.8151 55.3623 26.6182 55.2549 26.4424C55.1507 26.2666 55.0075 26.1266 54.8252 26.0225C54.6462 25.915 54.4362 25.8613 54.1953 25.8613C53.9186 25.8613 53.6859 25.9167 53.4971 26.0273C53.3115 26.1348 53.1634 26.2812 53.0527 26.4668C52.9453 26.6491 52.8672 26.8525 52.8184 27.0771C52.7728 27.2985 52.75 27.5247 52.75 27.7559V27.9609C52.75 28.1921 52.7728 28.4199 52.8184 28.6445C52.8639 28.8691 52.9404 29.0726 53.0479 29.2549C53.1585 29.4372 53.3066 29.5837 53.4922 29.6943C53.681 29.8018 53.9154 29.8555 54.1953 29.8555ZM60.4307 29.5967V26.877C60.4307 26.6686 60.3883 26.488 60.3037 26.335C60.2223 26.1787 60.0986 26.0583 59.9326 25.9736C59.7666 25.889 59.5615 25.8467 59.3174 25.8467C59.0895 25.8467 58.8893 25.8857 58.7168 25.9639C58.5475 26.042 58.4141 26.1445 58.3164 26.2715C58.222 26.3984 58.1748 26.5352 58.1748 26.6816H57.2715C57.2715 26.4928 57.3203 26.3057 57.418 26.1201C57.5156 25.9346 57.6556 25.7669 57.8379 25.6172C58.0234 25.4642 58.2448 25.3438 58.502 25.2559C58.7624 25.1647 59.0521 25.1191 59.3711 25.1191C59.7552 25.1191 60.0938 25.1842 60.3867 25.3145C60.6829 25.4447 60.9141 25.6416 61.0801 25.9053C61.2493 26.1657 61.334 26.4928 61.334 26.8867V29.3477C61.334 29.5234 61.3486 29.7106 61.3779 29.9092C61.4105 30.1077 61.4577 30.2786 61.5195 30.4219V30.5H60.5771C60.5316 30.3958 60.4958 30.2575 60.4697 30.085C60.4437 29.9092 60.4307 29.7464 60.4307 29.5967ZM60.5869 27.2969L60.5967 27.9316H59.6836C59.4264 27.9316 59.1969 27.9528 58.9951 27.9951C58.7933 28.0342 58.624 28.0944 58.4873 28.1758C58.3506 28.2572 58.2464 28.3597 58.1748 28.4834C58.1032 28.6038 58.0674 28.7454 58.0674 28.9082C58.0674 29.0742 58.1048 29.2256 58.1797 29.3623C58.2546 29.499 58.3669 29.6081 58.5166 29.6895C58.6696 29.7676 58.8568 29.8066 59.0781 29.8066C59.3548 29.8066 59.599 29.748 59.8105 29.6309C60.0221 29.5137 60.1898 29.3704 60.3135 29.2012C60.4404 29.0319 60.5088 28.8675 60.5186 28.708L60.9043 29.1426C60.8815 29.2793 60.8197 29.4307 60.7188 29.5967C60.6178 29.7627 60.4827 29.9222 60.3135 30.0752C60.1475 30.2249 59.9489 30.3503 59.7178 30.4512C59.4899 30.5488 59.2327 30.5977 58.9463 30.5977C58.5882 30.5977 58.2741 30.5277 58.0039 30.3877C57.737 30.2477 57.5286 30.0605 57.3789 29.8262C57.2324 29.5885 57.1592 29.3232 57.1592 29.0303C57.1592 28.7471 57.2145 28.498 57.3252 28.2832C57.4359 28.0651 57.5954 27.8844 57.8037 27.7412C58.012 27.5947 58.2627 27.484 58.5557 27.4092C58.8486 27.3343 59.1758 27.2969 59.5371 27.2969H60.5869ZM63.6582 26.3447V30.5H62.7549V25.2168H63.6094L63.6582 26.3447ZM63.4434 27.6582L63.0674 27.6436C63.0706 27.2822 63.1243 26.9486 63.2285 26.6426C63.3327 26.3333 63.4792 26.0648 63.668 25.8369C63.8568 25.609 64.0814 25.4333 64.3418 25.3096C64.6055 25.1826 64.8968 25.1191 65.2158 25.1191C65.4762 25.1191 65.7106 25.1549 65.9189 25.2266C66.1273 25.2949 66.3047 25.4056 66.4512 25.5586C66.6009 25.7116 66.7148 25.9102 66.793 26.1543C66.8711 26.3952 66.9102 26.6898 66.9102 27.0381V30.5H66.002V27.0283C66.002 26.7516 65.9613 26.5303 65.8799 26.3643C65.7985 26.195 65.6797 26.0729 65.5234 25.998C65.3672 25.9199 65.1751 25.8809 64.9473 25.8809C64.7227 25.8809 64.5176 25.9281 64.332 26.0225C64.1497 26.1169 63.9919 26.2471 63.8584 26.4131C63.7282 26.5791 63.6257 26.7695 63.5508 26.9844C63.4792 27.196 63.4434 27.4206 63.4434 27.6582ZM69.1855 26.3447V30.5H68.2822V25.2168H69.1367L69.1855 26.3447ZM68.9707 27.6582L68.5947 27.6436C68.598 27.2822 68.6517 26.9486 68.7559 26.6426C68.86 26.3333 69.0065 26.0648 69.1953 25.8369C69.3841 25.609 69.6087 25.4333 69.8691 25.3096C70.1328 25.1826 70.4242 25.1191 70.7432 25.1191C71.0036 25.1191 71.238 25.1549 71.4463 25.2266C71.6546 25.2949 71.832 25.4056 71.9785 25.5586C72.1283 25.7116 72.2422 25.9102 72.3203 26.1543C72.3984 26.3952 72.4375 26.6898 72.4375 27.0381V30.5H71.5293V27.0283C71.5293 26.7516 71.4886 26.5303 71.4072 26.3643C71.3258 26.195 71.207 26.0729 71.0508 25.998C70.8945 25.9199 70.7025 25.8809 70.4746 25.8809C70.25 25.8809 70.0449 25.9281 69.8594 26.0225C69.6771 26.1169 69.5192 26.2471 69.3857 26.4131C69.2555 26.5791 69.153 26.7695 69.0781 26.9844C69.0065 27.196 68.9707 27.4206 68.9707 27.6582ZM76.002 30.5977C75.6341 30.5977 75.3005 30.5358 75.001 30.4121C74.7048 30.2852 74.4492 30.1077 74.2344 29.8799C74.0228 29.652 73.86 29.3818 73.7461 29.0693C73.6322 28.7568 73.5752 28.415 73.5752 28.0439V27.8389C73.5752 27.4092 73.6387 27.0267 73.7656 26.6914C73.8926 26.3529 74.0651 26.0664 74.2832 25.832C74.5013 25.5977 74.7487 25.4202 75.0254 25.2998C75.3021 25.1794 75.5885 25.1191 75.8848 25.1191C76.2624 25.1191 76.5879 25.1842 76.8613 25.3145C77.138 25.4447 77.3643 25.627 77.54 25.8613C77.7158 26.0924 77.846 26.3659 77.9307 26.6816C78.0153 26.9941 78.0576 27.3359 78.0576 27.707V28.1123H74.1123V27.375H77.1543V27.3066C77.1413 27.0723 77.0924 26.8444 77.0078 26.623C76.9264 26.4017 76.7962 26.2194 76.6172 26.0762C76.4382 25.9329 76.194 25.8613 75.8848 25.8613C75.6797 25.8613 75.4909 25.9053 75.3184 25.9932C75.1458 26.0778 74.9977 26.2048 74.874 26.374C74.7503 26.5433 74.6543 26.75 74.5859 26.9941C74.5176 27.2383 74.4834 27.5199 74.4834 27.8389V28.0439C74.4834 28.2946 74.5176 28.5306 74.5859 28.752C74.6576 28.9701 74.7601 29.1621 74.8936 29.3281C75.0303 29.4941 75.1947 29.6243 75.3867 29.7188C75.582 29.8132 75.8034 29.8604 76.0508 29.8604C76.3698 29.8604 76.64 29.7952 76.8613 29.665C77.0827 29.5348 77.2764 29.3607 77.4424 29.1426L77.9893 29.5771C77.8753 29.7497 77.7305 29.9141 77.5547 30.0703C77.3789 30.2266 77.1624 30.3535 76.9053 30.4512C76.6514 30.5488 76.3503 30.5977 76.002 30.5977ZM80.0156 26.0469V30.5H79.1123V25.2168H79.9912L80.0156 26.0469ZM81.666 25.1875L81.6611 26.0273C81.5863 26.0111 81.5146 26.0013 81.4463 25.998C81.3812 25.9915 81.3063 25.9883 81.2217 25.9883C81.0133 25.9883 80.8294 26.0208 80.6699 26.0859C80.5104 26.151 80.3753 26.2422 80.2646 26.3594C80.154 26.4766 80.0661 26.6165 80.001 26.7793C79.9391 26.9388 79.8984 27.1146 79.8789 27.3066L79.625 27.4531C79.625 27.1341 79.6559 26.8346 79.7178 26.5547C79.7829 26.2747 79.8822 26.0273 80.0156 25.8125C80.1491 25.5944 80.3184 25.4251 80.5234 25.3047C80.7318 25.181 80.9792 25.1191 81.2656 25.1191C81.3307 25.1191 81.4056 25.1273 81.4902 25.1436C81.5749 25.1566 81.6335 25.1712 81.666 25.1875ZM86.5879 29.6846L88.0332 25.2168H88.9561L87.0566 30.5H86.4512L86.5879 29.6846ZM85.3818 25.2168L86.8711 29.709L86.9736 30.5H86.3682L84.4541 25.2168H85.3818ZM89.5078 27.917V27.8047C89.5078 27.4238 89.5632 27.0706 89.6738 26.7451C89.7845 26.4163 89.944 26.1315 90.1523 25.8906C90.3607 25.6465 90.613 25.4577 90.9092 25.3242C91.2054 25.1875 91.5374 25.1191 91.9053 25.1191C92.2764 25.1191 92.61 25.1875 92.9062 25.3242C93.2057 25.4577 93.4596 25.6465 93.668 25.8906C93.8796 26.1315 94.0407 26.4163 94.1514 26.7451C94.262 27.0706 94.3174 27.4238 94.3174 27.8047V27.917C94.3174 28.2979 94.262 28.651 94.1514 28.9766C94.0407 29.3021 93.8796 29.5869 93.668 29.8311C93.4596 30.0719 93.2074 30.2607 92.9111 30.3975C92.6182 30.5309 92.2861 30.5977 91.915 30.5977C91.5439 30.5977 91.2103 30.5309 90.9141 30.3975C90.6178 30.2607 90.3639 30.0719 90.1523 29.8311C89.944 29.5869 89.7845 29.3021 89.6738 28.9766C89.5632 28.651 89.5078 28.2979 89.5078 27.917ZM90.4111 27.8047V27.917C90.4111 28.1807 90.4421 28.4297 90.5039 28.6641C90.5658 28.8952 90.6585 29.1003 90.7822 29.2793C90.9092 29.4583 91.0671 29.5999 91.2559 29.7041C91.4447 29.805 91.6644 29.8555 91.915 29.8555C92.1624 29.8555 92.3789 29.805 92.5645 29.7041C92.7533 29.5999 92.9095 29.4583 93.0332 29.2793C93.1569 29.1003 93.2497 28.8952 93.3115 28.6641C93.3766 28.4297 93.4092 28.1807 93.4092 27.917V27.8047C93.4092 27.5443 93.3766 27.2985 93.3115 27.0674C93.2497 26.833 93.1553 26.6263 93.0283 26.4473C92.9046 26.265 92.7484 26.1217 92.5596 26.0176C92.374 25.9134 92.1559 25.8613 91.9053 25.8613C91.6579 25.8613 91.4398 25.9134 91.251 26.0176C91.0654 26.1217 90.9092 26.265 90.7822 26.4473C90.6585 26.6263 90.5658 26.833 90.5039 27.0674C90.4421 27.2985 90.4111 27.5443 90.4111 27.8047ZM98.5264 29.0986C98.5264 28.9684 98.4971 28.848 98.4385 28.7373C98.3831 28.6234 98.2676 28.5208 98.0918 28.4297C97.9193 28.3353 97.6589 28.2539 97.3105 28.1855C97.0176 28.1237 96.7523 28.0505 96.5146 27.9658C96.2803 27.8812 96.0801 27.7786 95.9141 27.6582C95.7513 27.5378 95.626 27.3962 95.5381 27.2334C95.4502 27.0706 95.4062 26.8802 95.4062 26.6621C95.4062 26.4538 95.4518 26.2568 95.543 26.0713C95.6374 25.8857 95.7692 25.7214 95.9385 25.5781C96.111 25.4349 96.3177 25.3226 96.5586 25.2412C96.7995 25.1598 97.068 25.1191 97.3643 25.1191C97.7874 25.1191 98.1488 25.194 98.4482 25.3438C98.7477 25.4935 98.9772 25.6937 99.1367 25.9443C99.2962 26.1917 99.376 26.4668 99.376 26.7695H98.4727C98.4727 26.623 98.4287 26.4814 98.3408 26.3447C98.2562 26.2048 98.1309 26.0892 97.9648 25.998C97.8021 25.9069 97.6019 25.8613 97.3643 25.8613C97.1136 25.8613 96.9102 25.9004 96.7539 25.9785C96.6009 26.0534 96.4886 26.1494 96.417 26.2666C96.3486 26.3838 96.3145 26.5075 96.3145 26.6377C96.3145 26.7354 96.3307 26.8232 96.3633 26.9014C96.3991 26.9762 96.4609 27.0462 96.5488 27.1113C96.6367 27.1732 96.7604 27.2318 96.9199 27.2871C97.0794 27.3424 97.2829 27.3978 97.5303 27.4531C97.9632 27.5508 98.3197 27.668 98.5996 27.8047C98.8796 27.9414 99.0879 28.109 99.2246 28.3076C99.3613 28.5062 99.4297 28.7471 99.4297 29.0303C99.4297 29.2614 99.3809 29.473 99.2832 29.665C99.1888 29.8571 99.0505 30.0231 98.8682 30.1631C98.6891 30.2998 98.4743 30.4072 98.2236 30.4854C97.9762 30.5602 97.6979 30.5977 97.3887 30.5977C96.9232 30.5977 96.5293 30.5146 96.207 30.3486C95.8848 30.1826 95.6406 29.9678 95.4746 29.7041C95.3086 29.4404 95.2256 29.1621 95.2256 28.8691H96.1338C96.1468 29.1165 96.2184 29.3135 96.3486 29.46C96.4788 29.6032 96.6383 29.7057 96.8271 29.7676C97.016 29.8262 97.2031 29.8555 97.3887 29.8555C97.6361 29.8555 97.8428 29.8229 98.0088 29.7578C98.1781 29.6927 98.3066 29.6032 98.3945 29.4893C98.4824 29.3753 98.5264 29.2451 98.5264 29.0986ZM106.427 29.4746V23H107.335V30.5H106.505L106.427 29.4746ZM102.872 27.917V27.8145C102.872 27.4108 102.921 27.0446 103.019 26.7158C103.119 26.3838 103.261 26.099 103.443 25.8613C103.629 25.6237 103.849 25.4414 104.103 25.3145C104.36 25.1842 104.646 25.1191 104.962 25.1191C105.294 25.1191 105.584 25.1777 105.831 25.2949C106.082 25.4089 106.293 25.5765 106.466 25.7979C106.642 26.016 106.78 26.2796 106.881 26.5889C106.982 26.8981 107.052 27.248 107.091 27.6387V28.0879C107.055 28.4753 106.985 28.8236 106.881 29.1328C106.78 29.4421 106.642 29.7057 106.466 29.9238C106.293 30.1419 106.082 30.3096 105.831 30.4268C105.58 30.5407 105.287 30.5977 104.952 30.5977C104.643 30.5977 104.36 30.5309 104.103 30.3975C103.849 30.264 103.629 30.0768 103.443 29.8359C103.261 29.5951 103.119 29.3118 103.019 28.9863C102.921 28.6576 102.872 28.3011 102.872 27.917ZM103.78 27.8145V27.917C103.78 28.1807 103.806 28.4281 103.858 28.6592C103.914 28.8903 103.998 29.0938 104.112 29.2695C104.226 29.4453 104.371 29.5837 104.547 29.6846C104.723 29.7822 104.933 29.8311 105.177 29.8311C105.476 29.8311 105.722 29.7676 105.914 29.6406C106.109 29.5137 106.266 29.346 106.383 29.1377C106.5 28.9294 106.591 28.7031 106.656 28.459V27.2822C106.617 27.1032 106.56 26.9307 106.485 26.7646C106.414 26.5954 106.319 26.4456 106.202 26.3154C106.088 26.182 105.947 26.0762 105.777 25.998C105.611 25.9199 105.414 25.8809 105.187 25.8809C104.939 25.8809 104.726 25.9329 104.547 26.0371C104.371 26.138 104.226 26.278 104.112 26.457C103.998 26.6328 103.914 26.8379 103.858 27.0723C103.806 27.3034 103.78 27.5508 103.78 27.8145ZM108.502 27.917V27.8047C108.502 27.4238 108.557 27.0706 108.668 26.7451C108.779 26.4163 108.938 26.1315 109.146 25.8906C109.355 25.6465 109.607 25.4577 109.903 25.3242C110.2 25.1875 110.532 25.1191 110.899 25.1191C111.271 25.1191 111.604 25.1875 111.9 25.3242C112.2 25.4577 112.454 25.6465 112.662 25.8906C112.874 26.1315 113.035 26.4163 113.146 26.7451C113.256 27.0706 113.312 27.4238 113.312 27.8047V27.917C113.312 28.2979 113.256 28.651 113.146 28.9766C113.035 29.3021 112.874 29.5869 112.662 29.8311C112.454 30.0719 112.201 30.2607 111.905 30.3975C111.612 30.5309 111.28 30.5977 110.909 30.5977C110.538 30.5977 110.204 30.5309 109.908 30.3975C109.612 30.2607 109.358 30.0719 109.146 29.8311C108.938 29.5869 108.779 29.3021 108.668 28.9766C108.557 28.651 108.502 28.2979 108.502 27.917ZM109.405 27.8047V27.917C109.405 28.1807 109.436 28.4297 109.498 28.6641C109.56 28.8952 109.653 29.1003 109.776 29.2793C109.903 29.4583 110.061 29.5999 110.25 29.7041C110.439 29.805 110.659 29.8555 110.909 29.8555C111.157 29.8555 111.373 29.805 111.559 29.7041C111.747 29.5999 111.904 29.4583 112.027 29.2793C112.151 29.1003 112.244 28.8952 112.306 28.6641C112.371 28.4297 112.403 28.1807 112.403 27.917V27.8047C112.403 27.5443 112.371 27.2985 112.306 27.0674C112.244 26.833 112.149 26.6263 112.022 26.4473C111.899 26.265 111.743 26.1217 111.554 26.0176C111.368 25.9134 111.15 25.8613 110.899 25.8613C110.652 25.8613 110.434 25.9134 110.245 26.0176C110.06 26.1217 109.903 26.265 109.776 26.4473C109.653 26.6263 109.56 26.833 109.498 27.0674C109.436 27.2985 109.405 27.5443 109.405 27.8047ZM116.559 29.8555C116.773 29.8555 116.972 29.8115 117.154 29.7236C117.337 29.6357 117.486 29.5153 117.604 29.3623C117.721 29.2061 117.787 29.0286 117.804 28.8301H118.663C118.647 29.1426 118.541 29.4339 118.346 29.7041C118.154 29.971 117.901 30.1875 117.589 30.3535C117.276 30.5163 116.933 30.5977 116.559 30.5977C116.161 30.5977 115.815 30.5277 115.519 30.3877C115.226 30.2477 114.981 30.0557 114.786 29.8115C114.594 29.5674 114.449 29.2874 114.352 28.9717C114.257 28.6527 114.21 28.3158 114.21 27.9609V27.7559C114.21 27.401 114.257 27.0658 114.352 26.75C114.449 26.431 114.594 26.1494 114.786 25.9053C114.981 25.6611 115.226 25.4691 115.519 25.3291C115.815 25.1891 116.161 25.1191 116.559 25.1191C116.972 25.1191 117.333 25.2038 117.643 25.373C117.952 25.5391 118.194 25.7669 118.37 26.0566C118.549 26.3431 118.647 26.6686 118.663 27.0332H117.804C117.787 26.8151 117.726 26.6182 117.618 26.4424C117.514 26.2666 117.371 26.1266 117.188 26.0225C117.009 25.915 116.799 25.8613 116.559 25.8613C116.282 25.8613 116.049 25.9167 115.86 26.0273C115.675 26.1348 115.527 26.2812 115.416 26.4668C115.309 26.6491 115.23 26.8525 115.182 27.0771C115.136 27.2985 115.113 27.5247 115.113 27.7559V27.9609C115.113 28.1921 115.136 28.4199 115.182 28.6445C115.227 28.8691 115.304 29.0726 115.411 29.2549C115.522 29.4372 115.67 29.5837 115.855 29.6943C116.044 29.8018 116.279 29.8555 116.559 29.8555ZM122.911 29.2793V25.2168H123.819V30.5H122.955L122.911 29.2793ZM123.082 28.166L123.458 28.1562C123.458 28.5078 123.421 28.8333 123.346 29.1328C123.274 29.429 123.157 29.6862 122.994 29.9043C122.831 30.1224 122.618 30.2933 122.354 30.417C122.091 30.5374 121.77 30.5977 121.393 30.5977C121.135 30.5977 120.899 30.5602 120.685 30.4854C120.473 30.4105 120.291 30.2949 120.138 30.1387C119.985 29.9824 119.866 29.779 119.781 29.5283C119.7 29.2777 119.659 28.9766 119.659 28.625V25.2168H120.562V28.6348C120.562 28.8724 120.589 29.0693 120.641 29.2256C120.696 29.3786 120.769 29.5007 120.86 29.5918C120.955 29.6797 121.059 29.7415 121.173 29.7773C121.29 29.8132 121.41 29.8311 121.534 29.8311C121.918 29.8311 122.223 29.7578 122.447 29.6113C122.672 29.4616 122.833 29.2614 122.931 29.0107C123.032 28.7568 123.082 28.4753 123.082 28.166ZM126.095 26.2666V30.5H125.187V25.2168H126.046L126.095 26.2666ZM125.909 27.6582L125.489 27.6436C125.493 27.2822 125.54 26.9486 125.631 26.6426C125.722 26.3333 125.857 26.0648 126.036 25.8369C126.215 25.609 126.438 25.4333 126.705 25.3096C126.972 25.1826 127.281 25.1191 127.633 25.1191C127.88 25.1191 128.108 25.1549 128.316 25.2266C128.525 25.2949 128.705 25.404 128.858 25.5537C129.011 25.7035 129.13 25.8955 129.215 26.1299C129.299 26.3643 129.342 26.6475 129.342 26.9795V30.5H128.438V27.0234C128.438 26.7467 128.391 26.5254 128.297 26.3594C128.206 26.1934 128.076 26.0729 127.906 25.998C127.737 25.9199 127.538 25.8809 127.311 25.8809C127.044 25.8809 126.821 25.9281 126.642 26.0225C126.463 26.1169 126.319 26.2471 126.212 26.4131C126.104 26.5791 126.026 26.7695 125.978 26.9844C125.932 27.196 125.909 27.4206 125.909 27.6582ZM129.332 27.1602L128.727 27.3457C128.73 27.056 128.777 26.7777 128.868 26.5107C128.963 26.2438 129.098 26.0062 129.273 25.7979C129.452 25.5895 129.672 25.4251 129.933 25.3047C130.193 25.181 130.491 25.1191 130.826 25.1191C131.109 25.1191 131.36 25.1566 131.578 25.2314C131.799 25.3063 131.985 25.4219 132.135 25.5781C132.288 25.7311 132.403 25.9281 132.481 26.1689C132.56 26.4098 132.599 26.6963 132.599 27.0283V30.5H131.69V27.0186C131.69 26.7223 131.643 26.4928 131.549 26.3301C131.458 26.1641 131.327 26.0485 131.158 25.9834C130.992 25.915 130.794 25.8809 130.562 25.8809C130.364 25.8809 130.188 25.915 130.035 25.9834C129.882 26.0518 129.754 26.1462 129.649 26.2666C129.545 26.3838 129.465 26.5189 129.41 26.6719C129.358 26.8249 129.332 26.9876 129.332 27.1602ZM136.158 30.5977C135.79 30.5977 135.457 30.5358 135.157 30.4121C134.861 30.2852 134.605 30.1077 134.391 29.8799C134.179 29.652 134.016 29.3818 133.902 29.0693C133.788 28.7568 133.731 28.415 133.731 28.0439V27.8389C133.731 27.4092 133.795 27.0267 133.922 26.6914C134.049 26.3529 134.221 26.0664 134.439 25.832C134.658 25.5977 134.905 25.4202 135.182 25.2998C135.458 25.1794 135.745 25.1191 136.041 25.1191C136.419 25.1191 136.744 25.1842 137.018 25.3145C137.294 25.4447 137.521 25.627 137.696 25.8613C137.872 26.0924 138.002 26.3659 138.087 26.6816C138.172 26.9941 138.214 27.3359 138.214 27.707V28.1123H134.269V27.375H137.311V27.3066C137.298 27.0723 137.249 26.8444 137.164 26.623C137.083 26.4017 136.952 26.2194 136.773 26.0762C136.594 25.9329 136.35 25.8613 136.041 25.8613C135.836 25.8613 135.647 25.9053 135.475 25.9932C135.302 26.0778 135.154 26.2048 135.03 26.374C134.907 26.5433 134.811 26.75 134.742 26.9941C134.674 27.2383 134.64 27.5199 134.64 27.8389V28.0439C134.64 28.2946 134.674 28.5306 134.742 28.752C134.814 28.9701 134.916 29.1621 135.05 29.3281C135.187 29.4941 135.351 29.6243 135.543 29.7188C135.738 29.8132 135.96 29.8604 136.207 29.8604C136.526 29.8604 136.796 29.7952 137.018 29.665C137.239 29.5348 137.433 29.3607 137.599 29.1426L138.146 29.5771C138.032 29.7497 137.887 29.9141 137.711 30.0703C137.535 30.2266 137.319 30.3535 137.062 30.4512C136.808 30.5488 136.507 30.5977 136.158 30.5977ZM140.172 26.3447V30.5H139.269V25.2168H140.123L140.172 26.3447ZM139.957 27.6582L139.581 27.6436C139.584 27.2822 139.638 26.9486 139.742 26.6426C139.846 26.3333 139.993 26.0648 140.182 25.8369C140.37 25.609 140.595 25.4333 140.855 25.3096C141.119 25.1826 141.41 25.1191 141.729 25.1191C141.99 25.1191 142.224 25.1549 142.433 25.2266C142.641 25.2949 142.818 25.4056 142.965 25.5586C143.115 25.7116 143.229 25.9102 143.307 26.1543C143.385 26.3952 143.424 26.6898 143.424 27.0381V30.5H142.516V27.0283C142.516 26.7516 142.475 26.5303 142.394 26.3643C142.312 26.195 142.193 26.0729 142.037 25.998C141.881 25.9199 141.689 25.8809 141.461 25.8809C141.236 25.8809 141.031 25.9281 140.846 26.0225C140.663 26.1169 140.506 26.2471 140.372 26.4131C140.242 26.5791 140.139 26.7695 140.064 26.9844C139.993 27.196 139.957 27.4206 139.957 27.6582ZM147.008 25.2168V25.9102H144.151V25.2168H147.008ZM145.118 23.9326H146.021V29.1914C146.021 29.3704 146.049 29.5055 146.104 29.5967C146.16 29.6878 146.231 29.748 146.319 29.7773C146.407 29.8066 146.502 29.8213 146.603 29.8213C146.677 29.8213 146.756 29.8148 146.837 29.8018C146.922 29.7855 146.985 29.7725 147.027 29.7627L147.032 30.5C146.961 30.5228 146.866 30.5439 146.749 30.5635C146.635 30.5863 146.497 30.5977 146.334 30.5977C146.113 30.5977 145.909 30.5537 145.724 30.4658C145.538 30.3779 145.39 30.2314 145.279 30.0264C145.172 29.818 145.118 29.5381 145.118 29.1865V23.9326ZM151.144 29.0986C151.144 28.9684 151.114 28.848 151.056 28.7373C151 28.6234 150.885 28.5208 150.709 28.4297C150.536 28.3353 150.276 28.2539 149.928 28.1855C149.635 28.1237 149.369 28.0505 149.132 27.9658C148.897 27.8812 148.697 27.7786 148.531 27.6582C148.368 27.5378 148.243 27.3962 148.155 27.2334C148.067 27.0706 148.023 26.8802 148.023 26.6621C148.023 26.4538 148.069 26.2568 148.16 26.0713C148.255 25.8857 148.386 25.7214 148.556 25.5781C148.728 25.4349 148.935 25.3226 149.176 25.2412C149.417 25.1598 149.685 25.1191 149.981 25.1191C150.405 25.1191 150.766 25.194 151.065 25.3438C151.365 25.4935 151.594 25.6937 151.754 25.9443C151.913 26.1917 151.993 26.4668 151.993 26.7695H151.09C151.09 26.623 151.046 26.4814 150.958 26.3447C150.873 26.2048 150.748 26.0892 150.582 25.998C150.419 25.9069 150.219 25.8613 149.981 25.8613C149.731 25.8613 149.527 25.9004 149.371 25.9785C149.218 26.0534 149.106 26.1494 149.034 26.2666C148.966 26.3838 148.932 26.5075 148.932 26.6377C148.932 26.7354 148.948 26.8232 148.98 26.9014C149.016 26.9762 149.078 27.0462 149.166 27.1113C149.254 27.1732 149.378 27.2318 149.537 27.2871C149.697 27.3424 149.9 27.3978 150.147 27.4531C150.58 27.5508 150.937 27.668 151.217 27.8047C151.497 27.9414 151.705 28.109 151.842 28.3076C151.979 28.5062 152.047 28.7471 152.047 29.0303C152.047 29.2614 151.998 29.473 151.9 29.665C151.806 29.8571 151.668 30.0231 151.485 30.1631C151.306 30.2998 151.091 30.4072 150.841 30.4854C150.593 30.5602 150.315 30.5977 150.006 30.5977C149.54 30.5977 149.146 30.5146 148.824 30.3486C148.502 30.1826 148.258 29.9678 148.092 29.7041C147.926 29.4404 147.843 29.1621 147.843 28.8691H148.751C148.764 29.1165 148.836 29.3135 148.966 29.46C149.096 29.6032 149.256 29.7057 149.444 29.7676C149.633 29.8262 149.82 29.8555 150.006 29.8555C150.253 29.8555 150.46 29.8229 150.626 29.7578C150.795 29.6927 150.924 29.6032 151.012 29.4893C151.1 29.3753 151.144 29.2451 151.144 29.0986Z" fill="#D9D9D9"/>
</svg>
