<svg width="137" height="35" viewBox="0 0 137 35" fill="none" xmlns="http://www.w3.org/2000/svg">
<path fill-rule="evenodd" clip-rule="evenodd" d="M14.5576 3.99612L16.4896 0L21.9666 3.77737L20.0354 7.77262C19.6962 8.4735 20.2039 9.32575 20.8692 9.17262L24.5704 8.3195L25.7682 15.7369L22.067 16.5891C16.08 17.9681 11.5092 10.3031 14.5576 3.99612Z" fill="#3A724F"/>
<path fill-rule="evenodd" clip-rule="evenodd" d="M11.2106 31.0037L9.27864 34.9998L3.80083 31.2233L5.73275 27.2272C6.07196 26.5263 5.56425 25.6741 4.8983 25.8272L1.19783 26.6794L0 19.2629L3.7012 18.4107C9.68817 17.0317 14.2583 24.6967 11.2106 31.0037Z" fill="#DC8E43"/>
<path fill-rule="evenodd" clip-rule="evenodd" d="M11.378 3.99612L9.44685 0L3.96905 3.77737L5.90097 7.77262C6.23944 8.4735 5.73246 9.32575 5.06651 9.17262L1.36531 8.3195L0.168945 15.7369L3.86941 16.5891C9.85712 17.9681 14.4279 10.3031 11.3788 3.99612H11.378Z" fill="#14424C"/>
<path fill-rule="evenodd" clip-rule="evenodd" d="M14.3957 31.0037L16.3262 34.9998L21.804 31.2233L19.8721 27.2272C19.5336 26.5263 20.0406 25.6741 20.7065 25.8272L24.407 26.6794L25.6048 19.2629L21.9036 18.4107C15.9166 17.0317 11.3466 24.6967 14.3943 31.0037H14.3957Z" fill="#C85D1B"/>
<path d="M29.5552 23.0028C28.8847 23.0028 28.308 22.8608 27.8251 22.5767C27.345 22.2898 26.9756 21.892 26.7171 21.3835C26.4614 20.875 26.3336 20.2898 26.3336 19.6278C26.3336 18.9574 26.4629 18.3693 26.7214 17.8636C26.9827 17.3551 27.3535 16.9588 27.8336 16.6747C28.3137 16.3878 28.8847 16.2443 29.5467 16.2443C30.1177 16.2443 30.6177 16.348 31.0467 16.5554C31.4756 16.7628 31.8151 17.054 32.0651 17.429C32.3151 17.804 32.4529 18.2443 32.4785 18.75H30.7654C30.7171 18.4233 30.5893 18.1605 30.3819 17.9616C30.1773 17.7599 29.9089 17.6591 29.5765 17.6591C29.2952 17.6591 29.0495 17.7358 28.8393 17.8892C28.6319 18.0398 28.47 18.2599 28.3535 18.5497C28.237 18.8395 28.1788 19.1903 28.1788 19.6023C28.1788 20.0199 28.2356 20.375 28.3492 20.6676C28.4657 20.9602 28.629 21.1832 28.8393 21.3366C29.0495 21.4901 29.2952 21.5668 29.5765 21.5668C29.7839 21.5668 29.97 21.5241 30.1347 21.4389C30.3023 21.3537 30.4401 21.2301 30.5481 21.0682C30.6589 20.9034 30.7313 20.706 30.7654 20.4759H32.4785C32.4501 20.9759 32.3137 21.4162 32.0694 21.7969C31.8279 22.1747 31.4941 22.4702 31.068 22.6832C30.6418 22.8963 30.1376 23.0028 29.5552 23.0028ZM36.5982 23.0028C35.9362 23.0028 35.3638 22.8622 34.8808 22.581C34.4007 22.2969 34.03 21.902 33.7686 21.3963C33.5072 20.8878 33.3766 20.2983 33.3766 19.6278C33.3766 18.9517 33.5072 18.3608 33.7686 17.8551C34.03 17.3466 34.4007 16.9517 34.8808 16.6705C35.3638 16.3864 35.9362 16.2443 36.5982 16.2443C37.2601 16.2443 37.8311 16.3864 38.3112 16.6705C38.7942 16.9517 39.1663 17.3466 39.4277 17.8551C39.6891 18.3608 39.8197 18.9517 39.8197 19.6278C39.8197 20.2983 39.6891 20.8878 39.4277 21.3963C39.1663 21.902 38.7942 22.2969 38.3112 22.581C37.8311 22.8622 37.2601 23.0028 36.5982 23.0028ZM36.6067 21.5966C36.9078 21.5966 37.1592 21.5114 37.3609 21.3409C37.5626 21.1676 37.7146 20.9318 37.8169 20.6335C37.922 20.3352 37.9746 19.9957 37.9746 19.6151C37.9746 19.2344 37.922 18.8949 37.8169 18.5966C37.7146 18.2983 37.5626 18.0625 37.3609 17.8892C37.1592 17.7159 36.9078 17.6293 36.6067 17.6293C36.3027 17.6293 36.047 17.7159 35.8396 17.8892C35.6351 18.0625 35.4803 18.2983 35.3751 18.5966C35.2729 18.8949 35.2217 19.2344 35.2217 19.6151C35.2217 19.9957 35.2729 20.3352 35.3751 20.6335C35.4803 20.9318 35.6351 21.1676 35.8396 21.3409C36.047 21.5114 36.3027 21.5966 36.6067 21.5966ZM41.0001 22.875V16.3295H42.7303V17.4844H42.807C42.9433 17.1009 43.1706 16.7983 43.4888 16.5767C43.807 16.3551 44.1876 16.2443 44.6308 16.2443C45.0797 16.2443 45.4618 16.3565 45.7771 16.581C46.0925 16.8026 46.3027 17.1037 46.4078 17.4844H46.476C46.6095 17.1094 46.851 16.8097 47.2004 16.5852C47.5527 16.358 47.9689 16.2443 48.449 16.2443C49.0598 16.2443 49.5555 16.4389 49.9362 16.8281C50.3197 17.2145 50.5115 17.7628 50.5115 18.473V22.875H48.7004V18.831C48.7004 18.4673 48.6038 18.1946 48.4107 18.0128C48.2175 17.831 47.976 17.7401 47.6862 17.7401C47.3567 17.7401 47.0996 17.8452 46.9149 18.0554C46.7303 18.2628 46.6379 18.5369 46.6379 18.8778V22.875H44.878V18.7926C44.878 18.4716 44.7857 18.2159 44.601 18.0256C44.4192 17.8352 44.1791 17.7401 43.8808 17.7401C43.6791 17.7401 43.4973 17.7912 43.3354 17.8935C43.1763 17.9929 43.0499 18.1335 42.9561 18.3153C42.8624 18.4943 42.8155 18.7045 42.8155 18.946V22.875H41.0001ZM53.8119 22.9986C53.3943 22.9986 53.0222 22.9261 52.6955 22.7812C52.3687 22.6335 52.1102 22.4162 51.9199 22.1293C51.7324 21.8395 51.6386 21.4787 51.6386 21.0469C51.6386 20.6832 51.7054 20.3778 51.8389 20.1307C51.9724 19.8835 52.1543 19.6847 52.3844 19.5341C52.6145 19.3835 52.8758 19.2699 53.1685 19.1932C53.4639 19.1165 53.7736 19.0625 54.0974 19.0312C54.4781 18.9915 54.7849 18.9545 55.0179 18.9205C55.2508 18.8835 55.4199 18.8295 55.525 18.7585C55.6301 18.6875 55.6827 18.5824 55.6827 18.4432V18.4176C55.6827 18.1477 55.5974 17.9389 55.427 17.7912C55.2594 17.6435 55.0207 17.5696 54.7111 17.5696C54.3844 17.5696 54.1244 17.642 53.9312 17.7869C53.7381 17.929 53.6102 18.108 53.5477 18.3239L51.8687 18.1875C51.954 17.7898 52.1216 17.446 52.3716 17.1562C52.6216 16.8636 52.944 16.6392 53.3389 16.483C53.7366 16.3239 54.1969 16.2443 54.7196 16.2443C55.0832 16.2443 55.4312 16.2869 55.7636 16.3722C56.0989 16.4574 56.3957 16.5895 56.6543 16.7685C56.9156 16.9474 57.1216 17.1776 57.2722 17.4588C57.4227 17.7372 57.498 18.071 57.498 18.4602V22.875H55.7764V21.9673H55.7253C55.6202 22.1719 55.4795 22.3523 55.3034 22.5085C55.1273 22.6619 54.9156 22.7827 54.6685 22.8707C54.4213 22.956 54.1358 22.9986 53.8119 22.9986ZM54.3318 21.7457C54.5989 21.7457 54.8347 21.6932 55.0392 21.5881C55.2437 21.4801 55.4043 21.3352 55.5207 21.1534C55.6372 20.9716 55.6955 20.7656 55.6955 20.5355V19.8409C55.6386 19.8778 55.5605 19.9119 55.4611 19.9432C55.3645 19.9716 55.2551 19.9986 55.133 20.0241C55.0108 20.0469 54.8886 20.0682 54.7665 20.0881C54.6443 20.1051 54.5335 20.1207 54.4341 20.1349C54.221 20.1662 54.0349 20.2159 53.8758 20.2841C53.7168 20.3523 53.5932 20.4446 53.5051 20.5611C53.417 20.6747 53.373 20.8168 53.373 20.9872C53.373 21.2344 53.4625 21.4233 53.6415 21.554C53.8233 21.6818 54.0534 21.7457 54.3318 21.7457ZM61.8553 25.4659C61.2672 25.4659 60.7629 25.3849 60.3425 25.223C59.9249 25.0639 59.5925 24.8466 59.3453 24.571C59.0982 24.2955 58.9376 23.9858 58.8638 23.642L60.5428 23.4162C60.5939 23.5469 60.6749 23.669 60.7857 23.7827C60.8964 23.8963 61.0428 23.9872 61.2246 24.0554C61.4092 24.1264 61.6337 24.1619 61.8979 24.1619C62.2928 24.1619 62.618 24.0653 62.8737 23.8722C63.1322 23.6818 63.2615 23.3622 63.2615 22.9134V21.7159H63.1848C63.1053 21.8977 62.9859 22.0696 62.8268 22.2315C62.6678 22.3935 62.4632 22.5256 62.2132 22.6278C61.9632 22.7301 61.6649 22.7812 61.3183 22.7812C60.8268 22.7812 60.3794 22.6676 59.976 22.4403C59.5754 22.2102 59.2558 21.8594 59.0172 21.3878C58.7814 20.9134 58.6635 20.3139 58.6635 19.5895C58.6635 18.848 58.7842 18.2287 59.0257 17.7315C59.2672 17.2344 59.5882 16.8622 59.9888 16.6151C60.3922 16.3679 60.8339 16.2443 61.3141 16.2443C61.6805 16.2443 61.9874 16.3068 62.2345 16.4318C62.4817 16.554 62.6805 16.7074 62.8311 16.892C62.9845 17.0739 63.1024 17.2528 63.1848 17.429H63.253V16.3295H65.0555V22.9389C65.0555 23.4957 64.9192 23.9616 64.6464 24.3366C64.3737 24.7116 63.9959 24.9929 63.5129 25.1804C63.0328 25.3707 62.4803 25.4659 61.8553 25.4659ZM61.8936 21.4176C62.1862 21.4176 62.4334 21.3452 62.6351 21.2003C62.8396 21.0526 62.9959 20.8423 63.1038 20.5696C63.2146 20.294 63.27 19.9645 63.27 19.581C63.27 19.1974 63.216 18.8651 63.1081 18.5838C63.0001 18.2997 62.8439 18.0795 62.6393 17.9233C62.4348 17.767 62.1862 17.6889 61.8936 17.6889C61.5953 17.6889 61.3439 17.7699 61.1393 17.9318C60.9348 18.0909 60.78 18.3125 60.6749 18.5966C60.5697 18.8807 60.5172 19.2088 60.5172 19.581C60.5172 19.9588 60.5697 20.2855 60.6749 20.5611C60.7828 20.8338 60.9376 21.0455 61.1393 21.196C61.3439 21.3437 61.5953 21.4176 61.8936 21.4176Z" fill="#C5BDBD"/>
</svg>
