<svg width="254" height="41" viewBox="0 0 254 41" fill="none" xmlns="http://www.w3.org/2000/svg">
<g clip-path="url(#clip0_465_35)">
<path fill-rule="evenodd" clip-rule="evenodd" d="M26.9891 5.067L30.5709 0.5L40.7254 4.817L37.145 9.383C36.5161 10.184 37.4574 11.158 38.6907 10.983L45.5528 10.008L47.7736 18.485L40.9115 19.459C29.8116 21.035 21.3372 12.275 26.9891 5.067Z" fill="#3A724F"/>
<path fill-rule="evenodd" clip-rule="evenodd" d="M20.7845 35.9333L17.2027 40.5003L7.0468 36.1843L10.6286 31.6173C11.2575 30.8163 10.3162 29.8423 9.08152 30.0173L2.2208 30.9913L0 22.5153L6.86207 21.5413C17.962 19.9653 26.435 28.7253 20.7845 35.9333Z" fill="#DC8E43"/>
<path fill-rule="evenodd" clip-rule="evenodd" d="M21.0943 5.067L17.5139 0.5L7.35794 4.817L10.9398 9.383C11.5673 10.184 10.6273 11.158 9.39266 10.983L2.53059 10.008L0.3125 18.485L7.17322 19.459C18.2745 21.035 26.7489 12.275 21.0957 5.067H21.0943Z" fill="#14424C"/>
<path fill-rule="evenodd" clip-rule="evenodd" d="M26.6904 35.9333L30.2695 40.5003L40.4255 36.1843L36.8436 31.6173C36.2161 30.8163 37.1561 29.8423 38.3907 30.0173L45.2515 30.9913L47.4723 22.5153L40.6102 21.5413C29.5102 19.9653 21.0372 28.7253 26.6877 35.9333H26.6904Z" fill="#C85D1B"/>
<path d="M57.8434 27.7131C56.7259 27.7131 55.7648 27.4763 54.9598 27.0028C54.1596 26.5246 53.5441 25.8617 53.1132 25.0142C52.6871 24.1667 52.474 23.1913 52.474 22.0881C52.474 20.9706 52.6895 19.9905 53.1203 19.1477C53.5559 18.3002 54.1738 17.6397 54.974 17.1662C55.7742 16.688 56.7259 16.4489 57.8291 16.4489C58.7809 16.4489 59.6142 16.6217 60.3291 16.9673C61.0441 17.313 61.6099 17.7983 62.0266 18.4233C62.4433 19.0483 62.6729 19.7822 62.7155 20.625H59.8604C59.7799 20.0805 59.5668 19.6425 59.2212 19.3111C58.8803 18.9749 58.4328 18.8068 57.8789 18.8068C57.4101 18.8068 57.0005 18.9347 56.6502 19.1903C56.3045 19.4413 56.0346 19.8082 55.8405 20.2912C55.6464 20.7741 55.5493 21.3589 55.5493 22.0455C55.5493 22.7415 55.644 23.3333 55.8334 23.821C56.0275 24.3087 56.2998 24.6804 56.6502 24.9361C57.0005 25.1918 57.4101 25.3196 57.8789 25.3196C58.2245 25.3196 58.5346 25.2486 58.8093 25.1065C59.0886 24.9645 59.3183 24.7585 59.4982 24.4886C59.6828 24.214 59.8036 23.8849 59.8604 23.5014H62.7155C62.6682 24.3348 62.4409 25.0687 62.0337 25.7031C61.6312 26.3329 61.0749 26.8253 60.3647 27.1804C59.6544 27.5355 58.814 27.7131 57.8434 27.7131ZM69.5816 27.7131C68.4784 27.7131 67.5243 27.4787 66.7194 27.0099C65.9192 26.5365 65.3013 25.8783 64.8657 25.0355C64.4301 24.188 64.2123 23.2055 64.2123 22.0881C64.2123 20.9612 64.4301 19.9763 64.8657 19.1335C65.3013 18.286 65.9192 17.6278 66.7194 17.1591C67.5243 16.6856 68.4784 16.4489 69.5816 16.4489C70.6849 16.4489 71.6366 16.6856 72.4367 17.1591C73.2417 17.6278 73.8619 18.286 74.2975 19.1335C74.7331 19.9763 74.951 20.9612 74.951 22.0881C74.951 23.2055 74.7331 24.188 74.2975 25.0355C73.8619 25.8783 73.2417 26.5365 72.4367 27.0099C71.6366 27.4787 70.6849 27.7131 69.5816 27.7131ZM69.5958 25.3693C70.0977 25.3693 70.5168 25.2273 70.8529 24.9432C71.1891 24.6544 71.4424 24.2614 71.6129 23.7642C71.7881 23.267 71.8757 22.7012 71.8757 22.0668C71.8757 21.4323 71.7881 20.8665 71.6129 20.3693C71.4424 19.8722 71.1891 19.4792 70.8529 19.1903C70.5168 18.9015 70.0977 18.7571 69.5958 18.7571C69.0892 18.7571 68.6631 18.9015 68.3174 19.1903C67.9765 19.4792 67.7185 19.8722 67.5433 20.3693C67.3728 20.8665 67.2876 21.4323 67.2876 22.0668C67.2876 22.7012 67.3728 23.267 67.5433 23.7642C67.7185 24.2614 67.9765 24.6544 68.3174 24.9432C68.6631 25.2273 69.0892 25.3693 69.5958 25.3693ZM76.9183 27.5V16.5909H79.8018V18.5156H79.9296C80.1569 17.8764 80.5357 17.3722 81.066 17.0028C81.5963 16.6335 82.2308 16.4489 82.9694 16.4489C83.7175 16.4489 84.3544 16.6359 84.8799 17.0099C85.4055 17.3793 85.7559 17.8812 85.9311 18.5156H86.0447C86.2672 17.8906 86.6697 17.3911 87.2521 17.017C87.8392 16.6383 88.5329 16.4489 89.3331 16.4489C90.351 16.4489 91.1773 16.7732 91.8117 17.4219C92.451 18.0658 92.7706 18.9796 92.7706 20.1634V27.5H89.7521V20.7599C89.7521 20.1539 89.5911 19.6993 89.2691 19.3963C88.9472 19.0933 88.5447 18.9418 88.0617 18.9418C87.5125 18.9418 87.084 19.117 86.7762 19.4673C86.4685 19.813 86.3146 20.2699 86.3146 20.8381V27.5H83.3814V20.696C83.3814 20.161 83.2275 19.7348 82.9197 19.4176C82.6167 19.1004 82.2166 18.9418 81.7194 18.9418C81.3832 18.9418 81.0802 19.027 80.8103 19.1974C80.5452 19.3632 80.3345 19.5975 80.1782 19.9006C80.022 20.1989 79.9439 20.5492 79.9439 20.9517V27.5H76.9183ZM98.2713 27.706C97.5752 27.706 96.955 27.5852 96.4105 27.3438C95.866 27.0975 95.4351 26.7353 95.1179 26.2571C94.8054 25.7741 94.6491 25.1728 94.6491 24.4531C94.6491 23.8471 94.7604 23.3381 94.9829 22.9261C95.2055 22.5142 95.5085 22.1828 95.892 21.9318C96.2755 21.6809 96.7111 21.4915 97.1988 21.3636C97.6912 21.2358 98.2073 21.1458 98.7471 21.0938C99.3816 21.0275 99.893 20.9659 100.281 20.9091C100.669 20.8475 100.951 20.7576 101.126 20.6392C101.302 20.5208 101.389 20.3456 101.389 20.1136V20.071C101.389 19.6212 101.247 19.2732 100.963 19.027C100.684 18.7808 100.286 18.6577 99.7698 18.6577C99.2253 18.6577 98.7921 18.7784 98.4701 19.0199C98.1482 19.2566 97.9351 19.5549 97.8309 19.9148L95.0326 19.6875C95.1747 19.0246 95.454 18.4517 95.8707 17.9688C96.2874 17.4811 96.8248 17.107 97.4829 16.8466C98.1458 16.5814 98.9128 16.4489 99.784 16.4489C100.39 16.4489 100.97 16.5199 101.524 16.6619C102.083 16.804 102.578 17.0241 103.008 17.3224C103.444 17.6207 103.787 18.0043 104.038 18.473C104.289 18.937 104.415 19.4934 104.415 20.142V27.5H101.545V25.9872H101.46C101.285 26.3281 101.051 26.6288 100.757 26.8892C100.463 27.1449 100.111 27.3461 99.6988 27.4929C99.2869 27.6349 98.811 27.706 98.2713 27.706ZM99.1377 25.6179C99.5828 25.6179 99.9758 25.5303 100.317 25.3551C100.658 25.1752 100.925 24.9337 101.119 24.6307C101.313 24.3277 101.41 23.9844 101.41 23.6009V22.4432C101.316 22.5047 101.186 22.5616 101.02 22.6136C100.859 22.661 100.677 22.706 100.473 22.7486C100.269 22.7865 100.066 22.822 99.8622 22.8551C99.6586 22.8835 99.4739 22.9096 99.3082 22.9332C98.9531 22.9853 98.643 23.0682 98.3778 23.1818C98.1126 23.2955 97.9067 23.4493 97.7599 23.6435C97.6131 23.8329 97.5397 24.0696 97.5397 24.3537C97.5397 24.7656 97.6889 25.0805 97.9872 25.2983C98.2902 25.5114 98.6737 25.6179 99.1377 25.6179ZM111.677 31.8182C110.697 31.8182 109.856 31.6832 109.155 31.4134C108.459 31.1482 107.905 30.786 107.494 30.3267C107.082 29.8674 106.814 29.3513 106.691 28.7784L109.489 28.402C109.575 28.6198 109.709 28.8234 109.894 29.0128C110.079 29.2022 110.323 29.3537 110.626 29.4673C110.933 29.5857 111.307 29.6449 111.748 29.6449C112.406 29.6449 112.948 29.4839 113.374 29.1619C113.805 28.8447 114.021 28.312 114.021 27.5639V25.5682H113.893C113.76 25.8712 113.561 26.1577 113.296 26.4276C113.031 26.6974 112.69 26.9176 112.273 27.0881C111.857 27.2585 111.36 27.3438 110.782 27.3438C109.963 27.3438 109.217 27.1544 108.545 26.7756C107.877 26.392 107.344 25.8073 106.947 25.0213C106.554 24.2306 106.357 23.2315 106.357 22.0241C106.357 20.7884 106.558 19.7562 106.961 18.9276C107.363 18.099 107.898 17.4787 108.566 17.0668C109.238 16.6548 109.975 16.4489 110.775 16.4489C111.386 16.4489 111.897 16.553 112.309 16.7614C112.721 16.965 113.052 17.2206 113.303 17.5284C113.559 17.8314 113.755 18.1297 113.893 18.4233H114.006V16.5909H117.011V27.6065C117.011 28.5346 116.783 29.3111 116.329 29.9361C115.874 30.5611 115.245 31.0298 114.44 31.3423C113.639 31.6596 112.718 31.8182 111.677 31.8182ZM111.741 25.071C112.228 25.071 112.64 24.9503 112.977 24.7088C113.317 24.4626 113.578 24.1122 113.758 23.6577C113.942 23.1984 114.035 22.6491 114.035 22.0099C114.035 21.3707 113.945 20.8168 113.765 20.348C113.585 19.8745 113.325 19.5076 112.984 19.2472C112.643 18.9867 112.228 18.8565 111.741 18.8565C111.244 18.8565 110.825 18.9915 110.484 19.2614C110.143 19.5265 109.885 19.8958 109.709 20.3693C109.534 20.8428 109.447 21.3897 109.447 22.0099C109.447 22.6397 109.534 23.1842 109.709 23.6435C109.889 24.098 110.147 24.4508 110.484 24.7017C110.825 24.9479 111.244 25.071 111.741 25.071Z" fill="black"/>
</g>
<defs>
<clipPath id="clip0_465_35">
<rect width="254" height="40" fill="white" transform="translate(0 0.5)"/>
</clipPath>
</defs>
</svg>
