<svg width="48" height="41" viewBox="0 0 48 41" fill="none" xmlns="http://www.w3.org/2000/svg">
<path fill-rule="evenodd" clip-rule="evenodd" d="M26.9891 5.067L30.5709 0.5L40.7254 4.817L37.145 9.383C36.5161 10.184 37.4574 11.158 38.6907 10.983L45.5528 10.008L47.7736 18.485L40.9115 19.459C29.8116 21.035 21.3372 12.275 26.9891 5.067Z" fill="#3A724F"/>
<path fill-rule="evenodd" clip-rule="evenodd" d="M20.7845 35.9333L17.2027 40.5003L7.0468 36.1843L10.6286 31.6173C11.2575 30.8163 10.3162 29.8423 9.08152 30.0173L2.2208 30.9913L0 22.5153L6.86207 21.5413C17.962 19.9653 26.435 28.7253 20.7845 35.9333Z" fill="#DC8E43"/>
<path fill-rule="evenodd" clip-rule="evenodd" d="M21.0943 5.067L17.5139 0.5L7.35794 4.817L10.9398 9.383C11.5673 10.184 10.6273 11.158 9.39266 10.983L2.53059 10.008L0.3125 18.485L7.17322 19.459C18.2745 21.035 26.7489 12.275 21.0957 5.067H21.0943Z" fill="#14424C"/>
<path fill-rule="evenodd" clip-rule="evenodd" d="M26.6904 35.9333L30.2695 40.5003L40.4255 36.1843L36.8436 31.6173C36.2161 30.8163 37.1561 29.8423 38.3907 30.0173L45.2515 30.9913L47.4723 22.5153L40.6102 21.5413C29.5102 19.9653 21.0372 28.7253 26.6877 35.9333H26.6904Z" fill="#C85D1B"/>
</svg>
